PathFileType	4	(X/Y/Z)	C:\Users\gl24\Desktop\Patient 3 Collaboration with Marleny\nms_results\Right\Marker Files\Patient3_NormalGait_1pt0_02_Right_01.trc.trc
DataRate	CameraRate	NumFrames	NumMarkers	Units	OrigDataRate	OrigDataStartFrame	OrigNumFrames
80.459770114943	80.459770114943	4	33	mm	80.459770114943	89	       141
Frame#	Time	L.Toe			L.Midfoot.Superior			Neck			R.Toe			R.Heel			L.Heel			R.Elbow			R.Shoulder			L.Shank.Inferior			L.Shoulder			L.Shank.Superior			R.Shank.Lateral			L.Patella			L.Thigh.Inferior			R.Wrist			R.Midfoot.Superior			L.Shank.Lateral			Sternum			L.Elbow			R.Midfoot.Lateral			L.Thigh.Superior			L.Wrist			R.Thigh.Superior			L.Thigh.Lateral			R.Shank.Inferior			L.Midfoot.Lateral			R.Shank.Superior			R.Thigh.Lateral			L.Asis			R.Thigh.Inferior			R.Patella			Sacral			R.Asis			
		X1	Y1	Z1	X2	Y2	Z2	X3	Y3	Z3	X4	Y4	Z4	X5	Y5	Z5	X6	Y6	Z6	X7	Y7	Z7	X8	Y8	Z8	X9	Y9	Z9	X10	Y10	Z10	X11	Y11	Z11	X12	Y12	Z12	X13	Y13	Z13	X14	Y14	Z14	X15	Y15	Z15	X16	Y16	Z16	X17	Y17	Z17	X18	Y18	Z18	X19	Y19	Z19	X20	Y20	Z20	X21	Y21	Z21	X22	Y22	Z22	X23	Y23	Z23	X24	Y24	Z24	X25	Y25	Z25	X26	Y26	Z26	X27	Y27	Z27	X28	Y28	Z28	X29	Y29	Z29	X30	Y30	Z30	X31	Y31	Z31	X32	Y32	Z32	X33	Y33	Z33	

89	1.483714285714	833.597339170861	46.330937058861	397.568804353873	713.607627433681	90.208668176269	409.989870020009	470.026495369550	1447.715603181186	471.260287357102	265.103146587141	14.837647361013	556.554456101011	141.077903672204	273.714092744209	530.185261461335	542.750742060441	33.773788944749	441.502591089860	546.763407245660	1064.213217033473	746.140041094399	529.397933957050	1411.676651631919	633.496369737213	683.826180234186	231.091456914774	397.957589438036	531.696946472395	1413.473218712777	321.169041179756	709.205921255218	384.431257743260	376.133352973139	405.672018419032	402.014268023375	640.053880496215	748.158013659605	501.123442647895	393.300852582939	731.573885693662	624.933965424960	364.408265226216	715.356750166917	871.388691962419	757.957437074007	254.747594454549	135.119440653606	556.034731650415	621.472816507234	325.844971377458	327.188566607238	627.063750045128	1358.624981960610	474.773084108888	462.973816985777	1079.740236875871	221.297622019151	160.881487052446	191.718696683443	591.513208870839	716.395014191056	749.578008208015	347.296373580436	544.187935723105	834.573908294055	202.144234085234	645.678257770090	686.425272171384	614.918244056995	640.444050642411	654.932719052457	306.497146221366	348.357124159188	266.193122329338	578.603346158207	620.073620178797	27.168609348609	375.515963755405	497.041155591838	361.192564002685	601.477155730551	547.090317059679	632.881321092535	647.487839087491	629.954402471965	957.256735943728	341.728153927968	641.297599169575	572.126164928916	604.232892755692	614.068880421631	437.311172497058	596.560862698553	445.846237735481	969.440583861614	462.374074763459	607.280207062885	952.939235107098	601.530907367410	
90	1.496142857143	821.186484401279	45.896369021516	397.404900660528	701.142912944214	90.038445273040	409.935820524971	470.122276874920	1448.718511661560	469.407996670466	264.744236319213	15.353612350581	558.656656722936	154.676014816638	284.702415775402	527.624353336598	530.253191296414	33.884210104661	441.380578589624	542.620091240914	1064.830013992694	743.796003991731	527.931142508423	1412.547085098063	632.220832911425	673.926262131799	230.219993057141	397.793901621098	533.330200855074	1414.279699577855	320.080529910438	701.831710872346	383.212526983513	376.035890901609	419.449837460139	405.573247002468	638.923927149438	742.665429404687	499.178896591260	393.214546618508	728.205263661351	622.864427960878	364.214262977073	704.294753172102	866.262687297421	757.218577212509	261.970989239887	140.839942795708	556.232313666407	613.141817570595	325.802604808654	327.450849826368	626.908364986849	1359.177842292513	474.601805662566	469.206155167946	1080.037138340912	218.056307493124	169.872222853463	202.179435660766	590.062981213603	715.343679581465	748.447271801500	346.616199559811	556.528631312093	836.736941521068	199.999904315390	651.255612425048	689.556774152257	614.488001049983	637.699144648156	654.792194178466	306.421569143419	359.669912568861	270.822382577909	577.972488676482	607.583648016704	27.189545602995	375.441394493696	510.269150126487	362.826447219945	600.679994284954	554.311921763988	633.006554006320	646.341267562600	630.552062264608	958.157933980955	341.600852673708	651.070471078534	575.288384633604	603.745876911566	628.258414312126	439.403820799462	595.764810280737	445.297230521701	970.194392838948	460.175247198555	605.483602941874	954.234304062872	601.228190135769	
91	1.508571428571	808.816954821093	45.374092065779	397.247913844971	688.746203251583	89.839171052372	409.865031062794	470.038615752475	1449.773896602218	467.615258813243	268.998657951219	17.067845270456	561.017252617991	168.397990752595	293.076108993503	524.646223096821	517.784955909266	34.033355956809	441.280064521397	538.107420750633	1065.473016670211	741.507541481105	526.056373361515	1413.418542886212	631.056198949258	663.811646565435	229.409393088079	397.654042380678	534.866541682092	1415.166032201670	319.111138106804	693.952991166517	382.051012350777	375.900179893370	433.119517539779	409.158633766267	637.723610645245	736.515062050966	497.271130654537	393.081771748678	724.291103039619	620.827254931835	364.254146974610	692.795165614974	861.527476246928	756.601787188174	271.496999130904	146.245960524587	556.419858816766	604.519384379299	325.679072384321	327.622177446046	626.525764386133	1359.798228793024	474.615799634923	475.391806999384	1080.489095550656	214.855181937224	180.384143113048	210.706025877584	588.411462613154	713.677484142398	747.197737617135	346.250119953164	569.054827082717	839.333682489004	197.993334428891	656.591958224524	693.101348105751	614.315509944918	634.379733199031	654.608238825273	306.405663854179	371.732808487010	275.202880739015	577.260351769288	595.130874398266	27.203597413205	375.396622457287	523.639062570554	365.054680962168	600.040706704299	561.297407181638	633.736364030753	645.418563778147	630.867788033857	958.969072455591	341.523995840006	660.472570983188	579.038708501154	603.497154445801	642.162011954455	442.339856691213	595.195208427614	444.559849082422	971.087711307144	458.069652690068	603.675037663260	955.666588745845	600.952877188293	
92	1.521000000000	796.471025829045	44.807976707319	397.092869809277	676.401418160031	89.634996022255	409.783193276129	469.783861829172	1450.877265508025	465.898350928334	278.234658089845	19.796337636784	563.427313955503	181.858963642900	298.660618400549	521.434945598802	505.342913785080	34.216273618848	441.203308540652	533.173964857702	1066.151229789973	739.278578232012	523.829349142837	1414.301031052034	629.997122787309	653.505279984500	228.683642766692	397.538542849248	536.270334331794	1416.149048680425	318.254733494534	685.632811493864	380.968056093238	375.742290241519	446.540340587268	412.665387822587	636.493042571054	729.783579208697	495.442976524338	392.907564256033	719.891137289725	618.954842644431	364.471427844450	680.903310139856	857.240186139161	756.096586630296	283.293199961564	151.212969599083	556.482986591679	595.621478606296	325.534931593958	327.704101110635	625.939408842114	1360.511065234366	474.777579662657	481.513566845194	1081.109359610871	211.720762447061	192.285446135485	217.042966617867	586.660427603561	711.400752796790	745.967543251572	346.250832351436	581.680484101247	842.385289169105	196.134242403048	661.667504814135	697.021530010067	614.334609840795	630.575340839463	654.430527964887	306.419790573896	384.408133477289	279.218668500415	576.440432289739	582.706720128586	27.227762945635	375.377890847459	537.027009953039	367.788398003108	599.561782258469	568.040951407072	635.037433695217	644.766600598987	630.866520396496	959.703794723434	341.398614569177	669.460320713695	583.319122948621	603.478039562937	655.677169869001	446.047358153454	594.890673567256	443.642236631072	972.124058479375	456.146767070701	601.940218828464	957.196061001202	600.618078070267	
